HIERARCHY
ROOT Hips
{
	OFFSET 0.000000 0.000000 0.000000
	CHANNELS 6 Xposition Yposition Zposition Xrotation Yrotation Zrotation
	JOINT LeftUpLeg_virtual
	{
		OFFSET 0.000000 0.000000 0.000000
		CHANNELS 3 Xrotation Yrotation Zrotation
		JOINT LeftUpLeg
		{
			OFFSET 15.427100 -6.655098 0.678600
			CHANNELS 3 Xrotation Yrotation Zrotation
			JOINT LeftLeg
			{
				OFFSET 4.081073 -39.591068 13.024000
				CHANNELS 3 Xrotation Yrotation Zrotation
				JOINT LeftFoot
				{
					OFFSET -4.081074 -37.707932 -15.979700
					CHANNELS 3 Xrotation Yrotation Zrotation
					JOINT LeftToeBase
					{
						OFFSET 5.346399 -15.068900 20.645000
						CHANNELS 3 Xrotation Yrotation Zrotation
						JOINT LeftToe_End
						{
							OFFSET 2.754700 0.931300 11.300900
							CHANNELS 3 Xrotation Yrotation Zrotation
							End Site
							{
								OFFSET 0 0 0
							}
						}
					}
				}
			}
		}
	}
	JOINT RightUpLeg_virtual
	{
		OFFSET 0.000000 0.000000 0.000000
		CHANNELS 3 Xrotation Yrotation Zrotation
		JOINT RightUpLeg
		{
			OFFSET -15.569500 -6.655098 0.678600
			CHANNELS 3 Xrotation Yrotation Zrotation
			JOINT RightLeg
			{
				OFFSET -4.081825 -39.591045 13.023800
				CHANNELS 3 Xrotation Yrotation Zrotation
				JOINT RightFoot
				{
					OFFSET 4.081824 -37.707954 -15.979600
					CHANNELS 3 Xrotation Yrotation Zrotation
					JOINT RightToeBase
					{
						OFFSET -5.346400 -15.068900 20.645000
						CHANNELS 3 Xrotation Yrotation Zrotation
						JOINT RightToe_End
						{
							OFFSET -2.754700 0.931300 11.300900
							CHANNELS 3 Xrotation Yrotation Zrotation
							End Site
							{
								OFFSET 0 0 0
							}
						}
					}
				}
			}
		}
	}
	JOINT Spine_virtual
	{
		OFFSET 0.000000 0.000000 0.000000
		CHANNELS 3 Xrotation Yrotation Zrotation
		JOINT Spine
		{
			OFFSET -0.279200 12.230698 -2.892100
			CHANNELS 3 Xrotation Yrotation Zrotation
			JOINT Spine1
			{
				OFFSET -0.232667 10.192268 -1.242267
				CHANNELS 3 Xrotation Yrotation Zrotation
				JOINT Spine1_split
				{
					OFFSET -0.232667 10.192268 -1.242267
					CHANNELS 3 Xrotation Yrotation Zrotation
					JOINT Spine2
					{
						OFFSET -0.232667 10.192268 -1.242267
						CHANNELS 3 Xrotation Yrotation Zrotation
						JOINT Neck_virtual
						{
							OFFSET 0.000000 0.000000 0.000000
							CHANNELS 3 Xrotation Yrotation Zrotation
							JOINT Neck
							{
								OFFSET -0.418800 17.814194 8.416900
								CHANNELS 3 Xrotation Yrotation Zrotation
								JOINT Head
								{
									OFFSET 0.000000 7.031097 3.806800
									CHANNELS 3 Xrotation Yrotation Zrotation
									JOINT HeadTop_End
									{
										OFFSET 0.000000 24.646606 12.978600
										CHANNELS 3 Xrotation Yrotation Zrotation
										End Site
										{
											OFFSET 0 0 0
										}
									}
								}
							}
						}
						JOINT LeftShoulder_virtual
						{
							OFFSET 0.000000 0.000000 0.000000
							CHANNELS 3 Xrotation Yrotation Zrotation
							JOINT LeftShoulder
							{
								OFFSET 8.476499 7.247704 -3.868750
								CHANNELS 3 Xrotation Yrotation Zrotation
								JOINT LeftShoulder_split
								{
									OFFSET 8.476499 7.247704 -3.868750
									CHANNELS 3 Xrotation Yrotation Zrotation
									JOINT LeftArm
									{
										OFFSET 9.308998 -2.777710 0.208600
										CHANNELS 3 Xrotation Yrotation Zrotation
										JOINT LeftForeArm
										{
											OFFSET 29.972298 0.000000 0.000000
											CHANNELS 3 Xrotation Yrotation Zrotation
											JOINT LeftHand
											{
												OFFSET 26.026505 0.000000 0.000000
												CHANNELS 3 Xrotation Yrotation Zrotation
												End Site
												{
													OFFSET 0 0 0
												}
											}
										}
									}
								}
							}
						}
						JOINT RightShoulder_virtual
						{
							OFFSET 0.000000 0.000000 0.000000
							CHANNELS 3 Xrotation Yrotation Zrotation
							JOINT RightShoulder
							{
								OFFSET -7.570500 7.247704 -3.868750
								CHANNELS 3 Xrotation Yrotation Zrotation
								JOINT RightShoulder_split
								{
									OFFSET -7.570500 7.247704 -3.868750
									CHANNELS 3 Xrotation Yrotation Zrotation
									JOINT RightArm
									{
										OFFSET -9.308998 -2.777710 0.208500
										CHANNELS 3 Xrotation Yrotation Zrotation
										JOINT RightForeArm
										{
											OFFSET -29.972300 0.000000 0.000000
											CHANNELS 3 Xrotation Yrotation Zrotation
											JOINT RightHand
											{
												OFFSET -26.026505 0.000000 0.000000
												CHANNELS 3 Xrotation Yrotation Zrotation
												End Site
												{
													OFFSET 0 0 0
												}
											}
										}
									}
								}
							}
						}
					}
				}
			}
		}
	}
}
MOTION
Frames: 11
Frame Time: 0.03333333
-1.070510 84.535683 -0.135338 0.000000 0.000000 0.000000 -4.006252 -46.630869 -2.421809 -24.737586 4.537625 13.432778 31.300274 -11.852820 -1.674360 -7.069709 0.519184 -6.501299 -0.024876 -3.715605 1.566299 0.000000 0.000000 0.000000 -4.965509 -45.635407 -2.493770 1.608654 -12.197884 -20.598273 24.383140 -7.715967 -0.297462 -22.351487 -5.118160 19.234492 -1.277374 0.129148 0.593130 0.000000 0.000000 0.000000 -2.789892 -43.855453 -1.625925 6.115024 5.975631 -0.901054 12.381017 9.420976 -3.108956 1.029125 -1.448195 0.705608 0.000000 0.000000 0.000000 12.354992 9.176283 -3.270125 -3.992415 -1.972556 0.323962 -4.756104 21.948845 -1.187532 0.000000 0.000000 0.000000 12.217018 9.373762 -3.094296 1.902760 -0.060578 -7.152685 -2.762610 -3.303772 -0.703481 -14.821181 3.649917 -61.409541 8.866838 -46.826520 5.382184 0.000000 0.000000 0.000000 12.243768 9.364008 -3.270870 1.418860 9.832323 11.595072 -1.815930 3.356283 -0.487812 3.541391 -21.435080 61.410005 -5.960526 41.824103 7.979215 0.000000 0.000000 0.000000 
-1.071298 84.536552 -0.070457 0.000000 0.000000 0.000000 -3.962490 -46.590223 -2.397975 -24.745849 4.480436 13.423003 31.239677 -11.832686 -1.683268 -7.121303 0.528154 -6.455216 0.023567 -3.721074 1.579306 0.000000 0.000000 0.000000 -4.882520 -45.604268 -2.465665 1.619217 -12.124189 -20.621248 24.420891 -7.662359 -0.340913 -22.350682 -5.135927 19.279713 -1.284413 0.118589 0.612473 0.000000 0.000000 0.000000 -2.694698 -43.832520 -1.597180 6.098731 5.975400 -0.888207 12.346854 9.391055 -3.122707 1.082631 -1.541619 0.700822 0.000000 0.000000 0.000000 12.345565 9.147049 -3.260954 -3.965352 -1.853187 0.254022 -4.750045 22.087833 -1.131357 0.000000 0.000000 0.000000 12.198040 9.340618 -3.101642 1.915280 -0.077300 -7.204139 -2.704959 -3.250750 -0.587123 -14.865809 3.571619 -61.400716 8.916970 -46.970012 5.420198 0.000000 0.000000 0.000000 12.218264 9.333734 -3.249032 1.438882 9.810239 11.583792 -1.912258 3.421554 -0.430980 3.567673 -21.401571 61.426336 -5.925003 41.718577 7.949869 0.000000 0.000000 0.000000 
-1.060925 84.547058 -0.028511 0.000000 0.000000 0.000000 -3.889840 -46.600895 -2.352228 -24.731352 4.409544 13.396637 31.143812 -11.790244 -1.658005 -7.206255 0.558584 -6.447252 0.072913 -3.728225 1.586677 0.000000 0.000000 0.000000 -4.795630 -45.592688 -2.421819 1.558724 -12.087462 -20.655991 24.493629 -7.590271 -0.426606 -22.326355 -5.160056 19.348123 -1.307671 0.097616 0.617296 0.000000 0.000000 0.000000 -2.587813 -43.819577 -1.564994 6.108128 5.954784 -0.876273 12.315903 9.337040 -3.126230 1.093818 -1.580173 0.725241 0.000000 0.000000 0.000000 12.319495 9.093229 -3.256585 -3.918406 -1.708501 0.187452 -4.663753 22.437629 -1.122664 0.000000 0.000000 0.000000 12.182729 9.276227 -3.104487 1.929587 -0.107215 -7.237508 -2.665887 -3.190700 -0.493102 -14.927312 3.539933 -61.422559 8.968146 -47.127492 5.462916 0.000000 0.000000 0.000000 12.198618 9.279768 -3.222691 1.450579 9.779409 11.578979 -1.959324 3.444500 -0.382812 3.545675 -21.303421 61.427778 -5.852106 41.524579 7.877323 0.000000 0.000000 0.000000 
-1.053617 84.554039 -0.023067 0.000000 0.000000 0.000000 -3.799204 -46.649205 -2.287683 -24.703454 4.336095 13.354225 31.046225 -11.733450 -1.603275 -7.297391 0.603981 -6.483008 0.104506 -3.735578 1.590513 0.000000 0.000000 0.000000 -4.712261 -45.588268 -2.362690 1.416554 -12.096094 -20.698829 24.599647 -7.503436 -0.551879 -22.281488 -5.185290 19.452693 -1.324741 0.068771 0.611365 0.000000 0.000000 0.000000 -2.491109 -43.810298 -1.530572 6.139421 5.915294 -0.868222 12.285635 9.257206 -3.119139 1.041215 -1.565441 0.768587 0.000000 0.000000 0.000000 12.284254 9.015158 -3.255522 -3.869741 -1.530710 0.120299 -4.529259 23.032849 -1.184166 0.000000 0.000000 0.000000 12.167273 9.180763 -3.100139 1.944113 -0.150231 -7.257803 -2.657162 -3.110415 -0.432002 -14.974044 3.576639 -61.466662 9.022464 -47.316791 5.514953 0.000000 0.000000 0.000000 12.176065 9.201301 -3.191473 1.456814 9.738801 11.561961 -1.979210 3.429045 -0.360987 3.489267 -21.170595 61.405661 -5.761302 41.276104 7.778928 0.000000 0.000000 0.000000 
-1.041906 84.554688 -0.042076 0.000000 0.000000 0.000000 -3.711225 -46.716233 -2.216102 -24.683621 4.281198 13.299101 30.975116 -11.671988 -1.535725 -7.360816 0.654602 -6.552691 0.131535 -3.744839 1.592454 0.000000 0.000000 0.000000 -4.650148 -45.585502 -2.297664 1.229174 -12.160405 -20.722133 24.714681 -7.413262 -0.717805 -22.239043 -5.203443 19.554589 -1.343608 0.036379 0.600123 0.000000 0.000000 0.000000 -2.423852 -43.803625 -1.492216 6.184902 5.862390 -0.860975 12.259103 9.151332 -3.107367 0.986395 -1.516346 0.792469 0.000000 0.000000 0.000000 12.244589 8.910344 -3.256349 -3.845509 -1.305348 0.041972 -4.393669 23.897278 -1.336110 0.000000 0.000000 0.000000 12.152353 9.051429 -3.090939 1.957533 -0.200329 -7.272263 -2.646106 -3.032688 -0.421768 -14.995542 3.659496 -61.519145 9.099794 -47.554762 5.585813 0.000000 0.000000 0.000000 12.147293 9.097561 -3.158541 1.458306 9.696465 11.525614 -1.975117 3.389501 -0.361610 3.417109 -21.034891 61.370841 -5.682436 41.034984 7.681018 0.000000 0.000000 0.000000 
-1.023372 84.549843 -0.065407 0.000000 0.000000 0.000000 -3.637776 -46.771223 -2.141718 -24.684577 4.261707 13.231050 30.940050 -11.608883 -1.473531 -7.387527 0.694959 -6.636632 0.167314 -3.758385 1.596078 0.000000 0.000000 0.000000 -4.611339 -45.576408 -2.230170 1.040969 -12.280135 -20.702677 24.811506 -7.345600 -0.927128 -22.213657 -5.214013 19.615419 -1.393382 0.004825 0.594121 0.000000 0.000000 0.000000 -2.401494 -43.794910 -1.447462 6.231149 5.801504 -0.851691 12.234069 9.018291 -3.098376 0.937602 -1.449453 0.791888 0.000000 0.000000 0.000000 12.202749 8.774758 -3.259965 -3.874280 -1.015004 -0.062057 -4.281601 25.055796 -1.596028 0.000000 0.000000 0.000000 12.138031 8.889562 -3.082126 1.970441 -0.250809 -7.290897 -2.590186 -3.011158 -0.424786 -14.986333 3.753941 -61.568630 9.209240 -47.832768 5.676104 0.000000 0.000000 0.000000 12.109254 8.965116 -3.126053 1.455332 9.664591 11.461007 -1.935844 3.336080 -0.371286 3.335300 -20.918530 61.333077 -5.632575 40.851700 7.604029 0.000000 0.000000 0.000000 
-1.001827 84.545914 -0.072353 0.000000 0.000000 0.000000 -3.583651 -46.796167 -2.054946 -24.701813 4.301416 13.151410 30.929801 -11.544241 -1.429796 -7.412841 0.717682 -6.699514 0.231422 -3.778591 1.603604 0.000000 0.000000 0.000000 -4.603794 -45.556781 -2.164473 0.882918 -12.444960 -20.637678 24.870085 -7.326468 -1.175341 -22.185604 -5.204777 19.627838 -1.498690 -0.022663 0.602702 0.000000 0.000000 0.000000 -2.421295 -43.788510 -1.393243 6.280039 5.741145 -0.843073 12.208820 8.860440 -3.097849 0.911286 -1.397594 0.800171 0.000000 0.000000 0.000000 12.159401 8.610592 -3.267430 -3.980323 -0.647990 -0.194190 -4.206025 26.504025 -1.965688 0.000000 0.000000 0.000000 12.128022 8.699065 -3.076200 1.982397 -0.297948 -7.309310 -2.509100 -2.997018 -0.429266 -14.953173 3.806744 -61.601415 9.332461 -48.099046 5.761280 0.000000 0.000000 0.000000 12.062968 8.803983 -3.099146 1.448034 9.654411 11.373546 -1.905872 3.260568 -0.353639 3.249132 -20.824646 61.302061 -5.606611 40.723254 7.549797 0.000000 0.000000 0.000000 
-0.978824 84.553101 -0.078339 0.000000 0.000000 0.000000 -3.535349 -46.780922 -1.943230 -24.726480 4.396510 13.052680 30.933841 -11.492685 -1.404537 -7.479503 0.705373 -6.739060 0.303887 -3.805165 1.629701 0.000000 0.000000 0.000000 -4.615389 -45.527688 -2.091307 0.765059 -12.622815 -20.541743 24.886561 -7.360773 -1.453664 -22.119332 -5.164651 19.637559 -1.677137 -0.047192 0.631275 0.000000 0.000000 0.000000 -2.468717 -43.780194 -1.319614 6.336397 5.687573 -0.834680 12.181963 8.684576 -3.106616 0.928545 -1.379889 0.815209 0.000000 0.000000 0.000000 12.111525 8.425079 -3.279017 -4.180285 -0.196328 -0.343329 -4.165743 28.208230 -2.431033 0.000000 0.000000 0.000000 12.123168 8.490131 -3.075164 1.992874 -0.333378 -7.331790 -2.406658 -2.976059 -0.429802 -14.893470 3.788493 -61.610956 9.449951 -48.273168 5.815634 0.000000 0.000000 0.000000 12.021676 8.622606 -3.084512 1.431745 9.672376 11.281458 -1.902422 3.166919 -0.291171 3.175845 -20.733586 61.287035 -5.588345 40.598460 7.509854 0.000000 0.000000 0.000000 
-0.966618 84.571602 -0.070919 0.000000 0.000000 0.000000 -3.488597 -46.735382 -1.805728 -24.739218 4.517155 12.921593 30.917913 -11.469874 -1.384134 -7.599403 0.652840 -6.790020 0.351994 -3.834222 1.686692 0.000000 0.000000 0.000000 -4.634087 -45.496717 -1.999811 0.680428 -12.759330 -20.431357 24.865983 -7.448396 -1.752555 -21.993219 -5.082656 19.720517 -1.945404 -0.071820 0.674104 0.000000 0.000000 0.000000 -2.529872 -43.762661 -1.227786 6.399903 5.641650 -0.828684 12.152419 8.502500 -3.122288 0.947002 -1.412733 0.828946 0.000000 0.000000 0.000000 12.064304 8.234593 -3.292693 -4.473864 0.336035 -0.490030 -4.139586 30.121107 -2.968208 0.000000 0.000000 0.000000 12.124940 8.279027 -3.076861 1.999727 -0.352676 -7.354347 -2.316817 -2.933087 -0.439579 -14.788241 3.711582 -61.591245 9.533774 -48.328018 5.818745 0.000000 0.000000 0.000000 11.988507 8.434004 -3.079940 1.404180 9.717550 11.195833 -1.928818 3.072547 -0.200984 3.127041 -20.626695 61.271981 -5.554077 40.415404 7.467827 0.000000 0.000000 0.000000 
-0.960397 84.592216 -0.049244 0.000000 0.000000 0.000000 -3.440762 -46.671840 -1.650566 -24.746899 4.628461 12.755502 30.892300 -11.479310 -1.347310 -7.747864 0.591054 -6.876284 0.381807 -3.858815 1.765929 0.000000 0.000000 0.000000 -4.645255 -45.461702 -1.893111 0.621829 -12.801139 -20.319164 24.826720 -7.590938 -2.068832 -21.852854 -4.947463 19.895093 -2.242308 -0.093958 0.715902 0.000000 0.000000 0.000000 -2.598687 -43.729012 -1.131409 6.472820 5.603337 -0.825354 12.125977 8.328434 -3.140502 0.954443 -1.442321 0.852536 0.000000 0.000000 0.000000 12.023687 8.055470 -3.307235 -4.849976 0.934112 -0.617597 -4.103155 32.182677 -3.543798 0.000000 0.000000 0.000000 12.136283 8.079390 -3.075401 2.001888 -0.349714 -7.372682 -2.255709 -2.869975 -0.492568 -14.648626 3.598971 -61.537935 9.583455 -48.283581 5.770891 0.000000 0.000000 0.000000 11.962752 8.252000 -3.079316 1.364797 9.783851 11.120412 -1.956252 2.973509 -0.113873 3.091607 -20.495712 61.248874 -5.490045 40.152234 7.413089 0.000000 0.000000 0.000000 
-0.963966 84.601555 -0.001427 0.000000 0.000000 0.000000 -3.396203 -46.608077 -1.505863 -24.766283 4.692290 12.550631 30.870802 -11.501210 -1.259568 -7.897230 0.569061 -7.007132 0.424284 -3.867074 1.842466 0.000000 0.000000 0.000000 -4.625686 -45.428336 -1.777291 0.585911 -12.721842 -20.209688 24.812945 -7.811309 -2.391608 -21.777875 -4.777658 20.127970 -2.406979 -0.113166 0.743969 0.000000 0.000000 0.000000 -2.680269 -43.655058 -1.049268 6.551268 5.566056 -0.820153 12.108214 8.168058 -3.150530 0.965859 -1.458913 0.860453 0.000000 0.000000 0.000000 11.997516 7.896759 -3.319374 -5.285389 1.581902 -0.719461 -4.046951 34.339582 -4.133341 0.000000 0.000000 0.000000 12.160135 7.898129 -3.062152 1.996065 -0.332340 -7.388252 -2.195272 -2.800024 -0.577773 -14.502042 3.481014 -61.456546 9.615366 -48.171265 5.690535 0.000000 0.000000 0.000000 11.942155 8.084378 -3.071175 1.316620 9.852416 11.048533 -1.976451 2.876556 -0.035871 3.070167 -20.348303 61.201493 -5.388942 39.842611 7.341897 0.000000 0.000000 0.000000 
